<svg width="50" height="50" viewBox="0 0 50 50" fill="none" xmlns="http://www.w3.org/2000/svg">
<circle cx="25" cy="25.0001" r="25" fill="#058D4A"/>
<path d="M13.8429 27.415C16.1345 32.879 22.3925 35.4305 27.8172 33.1224C28.7921 32.7027 29.6837 32.1572 30.4753 31.4941C30.5003 31.5193 30.5253 31.5528 30.5503 31.578L35.9 36.9665C36.4833 37.554 37.3083 37.6715 37.7416 37.2435C38.1749 36.8154 38.0499 35.9677 37.4666 35.3802L32.1169 29.9917C32.0836 29.9581 32.0503 29.9245 32.0086 29.891C33.4668 28.0361 34.3085 25.7027 34.3085 23.2351C34.3251 17.3095 29.5504 12.5001 23.6674 12.5001C22.2425 12.5001 20.8342 12.7855 19.5176 13.3478C14.0929 15.656 11.5514 21.9509 13.8429 27.415ZM15.2262 23.2351C15.2345 18.5433 19.0093 14.7411 23.6674 14.7411C28.3255 14.7411 32.1002 18.5433 32.1002 23.2351C32.1002 27.9269 28.3255 31.7291 23.6674 31.7291C19.0093 31.7291 15.2262 27.9269 15.2262 23.2351Z" fill="white"/>
</svg>
