<svg width="46" height="46" viewBox="0 0 118 60" fill="none" xmlns="http://www.w3.org/2000/svg">
<path d="M115.478 59.4023C115.171 59.6935 114.865 60.2759 113.944 60.2759H63.6341C62.7138 60.2759 62.1002 59.6935 62.1002 59.4023C61.7935 59.1111 61.4867 58.5287 62.1002 57.6552L66.395 50.9579H111.183L115.478 57.6552C115.785 58.5287 115.478 59.1111 115.478 59.4023ZM88.7892 70.4674C85.7215 70.4674 82.9606 68.4291 81.7335 65.8084H95.8449C94.6178 68.4291 91.8569 70.4674 88.7892 70.4674ZM71.9169 31.4483C71.9169 22.4215 79.2793 15.1418 88.4824 15.1418C97.6855 15.1418 105.355 22.4215 105.355 31.4483V36.9808C105.355 40.1839 106.275 43.0958 107.809 45.7165H69.4627C70.9966 43.0958 71.9169 40.1839 71.9169 36.9808V31.4483ZM84.1877 9.6092C84.1877 7.27969 86.0283 5.24138 88.7892 5.24138C91.2434 5.24138 93.3907 7.27969 93.3907 9.6092V10.1916C91.8569 9.90038 90.323 9.6092 88.7892 9.6092C87.2554 9.6092 85.7215 9.90038 84.4944 9.90038L84.1877 9.6092ZM120.08 54.7433L112.717 43.0958C111.49 41.0575 110.877 39.0192 110.877 36.6897V31.1571C110.877 22.7126 105.968 15.7241 98.6058 11.9387V9.6092C98.6058 4.36782 94.0043 0 88.4824 0C83.2673 0 78.6658 4.36782 78.6658 9.6092V12.2299C71.6101 15.7241 66.395 23.0038 66.395 31.4483V36.9808C66.395 39.3103 65.7815 41.3487 64.5544 43.387L57.1919 55.0345C55.6581 57.364 55.6581 59.9847 56.8852 62.3142C58.1122 64.6437 60.5664 66.0996 63.3273 66.0996H75.5981C76.8252 71.6322 82.0403 76 88.4824 76C94.6178 76 99.8329 71.6322 101.367 66.0996H113.638C116.398 66.0996 118.853 64.6437 120.08 62.3142C121.307 59.6935 121.307 57.0728 120.08 54.7433Z" fill="#058D4A"/>
</svg>
